<svg xmlns="http://www.w3.org/2000/svg" style="display: none;">
  <symbol id="volunteer" viewBox="0 0 24 24">
    <path d="M12 2C6.48 2 2 6.48 2 12s4.48 10 10 10 10-4.48 10-10S17.52 2 12 2zm0 18c-4.41 0-8-3.59-8-8s3.59-8 8-8 8 3.59 8 8-3.59 8-8 8z" fill="currentColor"/>
    <path d="M15 8.5c0 1.93-1.57 3.5-3.5 3.5S8 10.43 8 8.5 9.57 5 11.5 5 15 6.57 15 8.5zm-2 4.5h-3c-2.21 0-4 1.79-4 4v2h11v-2c0-2.21-1.79-4-4-4z" fill="currentColor"/>
  </symbol>

  <symbol id="job-portal" viewBox="0 0 24 24">
    <path d="M20 6h-4V4c0-1.11-.89-2-2-2h-4c-1.11 0-2 .89-2 2v2H4c-1.11 0-1.99.89-1.99 2L2 19c0 1.11.89 2 2 2h16c1.11 0 2-.89 2-2V8c0-1.11-.89-2-2-2zm-6 0h-4V4h4v2z" fill="currentColor"/>
  </symbol>

  <symbol id="speech" viewBox="0 0 24 24">
    <path d="M12 14c1.66 0 3-1.34 3-3V5c0-1.66-1.34-3-3-3S9 3.34 9 5v6c0 1.66 1.34 3 3 3zm5.91-3c-.49 0-.9.36-.98.85C16.52 14.2 14.47 16 12 16s-4.52-1.8-4.93-4.15c-.08-.49-.49-.85-.98-.85-.61 0-1.09.54-1 1.14.49 3 2.89 5.35 5.91 5.78V20c0 .55.45 1 1 1s1-.45 1-1v-2.08c3.02-.43 5.42-2.78 5.91-5.78.1-.6-.39-1.14-1-1.14z" fill="currentColor"/>
  </symbol>

  <symbol id="external-link" viewBox="0 0 24 24">
    <path d="M19 19H5V5h7V3H5c-1.11 0-2 .9-2 2v14c0 1.1.89 2 2 2h14c1.1 0 2-.9 2-2v-7h-2v7zM14 3v2h3.59l-9.83 9.83 1.41 1.41L19 6.41V10h2V3h-7z" fill="currentColor"/>
  </symbol>

  <symbol id="code" viewBox="0 0 24 24">
    <path d="M9.4 16.6L4.8 12l4.6-4.6L8 6l-6 6 6 6 1.4-1.4zm5.2 0l4.6-4.6-4.6-4.6L16 6l6 6-6 6-1.4-1.4z" fill="currentColor"/>
  </symbol>
</svg>