<svg xmlns="http://www.w3.org/2000/svg" style="display: none;">
  <symbol id="react" viewBox="0 0 24 24">
    <circle cx="12" cy="12" r="2.139" fill="currentColor"/>
    <path d="M12,4.793c-1.395,0-2.807,0.207-4.045,0.61c-1.238,0.404-2.303,0.977-3.09,1.666c-0.787,0.689-1.365,1.475-1.684,2.281 c-0.319,0.806-0.418,1.643-0.289,2.441c0.129,0.798,0.476,1.549,1.017,2.219c0.541,0.67,1.264,1.256,2.133,1.736 c0.869,0.479,1.877,0.851,2.98,1.098c1.103,0.248,2.277,0.371,3.456,0.371" fill="none" stroke="currentColor" strokeWidth="1.5"/>
    <path d="M12,19.207c1.395,0,2.807-0.207,4.045-0.61c1.238-0.404,2.303-0.977,3.09-1.666c0.787-0.689,1.365-1.475,1.684-2.281 c0.319-0.806,0.418-1.643,0.289-2.441c-0.129-0.798-0.476-1.549-1.017-2.219c-0.541-0.67-1.264-1.256-2.133-1.736 c-0.869-0.479-1.877-0.851-2.98-1.098C13.875,6.908,12.701,6.785,11.522,6.785" fill="none" stroke="currentColor" strokeWidth="1.5"/>
  </symbol>

  <symbol id="node" viewBox="0 0 24 24">
    <path d="M12,1.85c-0.218,0-0.432,0.057-0.621,0.164L3.341,6.612C2.962,6.825,2.723,7.229,2.723,7.661v9.467 c0,0.432,0.239,0.836,0.618,1.049l8.038,4.597c0.189,0.107,0.403,0.164,0.621,0.164s0.432-0.057,0.621-0.164l8.038-4.597 c0.379-0.213,0.618-0.617,0.618-1.049V7.661c0-0.432-0.239-0.836-0.618-1.049l-8.038-4.597C12.432,1.907,12.218,1.85,12,1.85z" fill="none" stroke="currentColor" strokeWidth="1.5"/>
  </symbol>

  <symbol id="typescript" viewBox="0 0 24 24">
    <path d="M3,3v18h18V3H3z M13.666,12.451h-2.118v6.044H9.841v-6.044H7.723v-1.47h5.943V12.451z M19.713,17.029 c-0.234,0.366-0.537,0.673-0.909,0.922c-0.372,0.249-0.788,0.434-1.249,0.552c-0.461,0.119-0.937,0.178-1.427,0.178 c-0.627,0-1.201-0.087-1.724-0.261s-0.974-0.442-1.349-0.805v-1.975c0.435,0.454,0.911,0.805,1.428,1.051 c0.517,0.246,1.063,0.37,1.638,0.37c0.328,0,0.612-0.036,0.853-0.109c0.241-0.073,0.441-0.174,0.601-0.303 c0.16-0.129,0.278-0.281,0.356-0.456c0.078-0.175,0.117-0.365,0.117-0.571c0-0.219-0.042-0.41-0.127-0.574 c-0.085-0.163-0.21-0.314-0.375-0.452c-0.165-0.138-0.371-0.272-0.616-0.402c-0.245-0.13-0.531-0.274-0.856-0.433 c-0.328-0.159-0.628-0.323-0.902-0.492c-0.274-0.169-0.509-0.359-0.706-0.571c-0.197-0.212-0.349-0.456-0.456-0.733 c-0.107-0.277-0.16-0.603-0.16-0.978c0-0.413,0.081-0.779,0.244-1.099c0.163-0.32,0.389-0.589,0.679-0.809 c0.29-0.22,0.632-0.386,1.027-0.499c0.395-0.113,0.821-0.169,1.279-0.169c0.547,0,1.063,0.077,1.548,0.232 c0.485,0.155,0.946,0.371,1.384,0.649l-0.715,1.409c-0.352-0.231-0.725-0.417-1.118-0.557c-0.393-0.14-0.796-0.21-1.209-0.21 c-0.547,0-0.971,0.101-1.272,0.303c-0.301,0.202-0.452,0.492-0.452,0.871c0,0.194,0.036,0.362,0.107,0.505 c0.071,0.143,0.182,0.277,0.333,0.402c0.151,0.125,0.341,0.247,0.571,0.366c0.23,0.119,0.505,0.249,0.825,0.389 c0.352,0.153,0.678,0.314,0.978,0.482c0.3,0.168,0.559,0.359,0.775,0.571c0.216,0.212,0.384,0.456,0.505,0.733 c0.121,0.277,0.182,0.603,0.182,0.978C20,16.297,19.904,16.663,19.713,17.029z" fill="currentColor"/>
  </symbol>

  <symbol id="tailwind" viewBox="0 0 24 24">
    <path d="M12.001,4.8c-3.2,0-5.2,1.6-6,4.8c1.2-1.6,2.6-2.2,4.2-1.8c0.913,0.228,1.565,0.89,2.288,1.624 C13.666,10.618,15.027,12,18.001,12c3.2,0,5.2-1.6,6-4.8c-1.2,1.6-2.6,2.2-4.2,1.8c-0.913-0.228-1.565-0.89-2.288-1.624 C16.337,6.182,14.976,4.8,12.001,4.8z M6.001,12c-3.2,0-5.2,1.6-6,4.8c1.2-1.6,2.6-2.2,4.2-1.8c0.913,0.228,1.565,0.89,2.288,1.624 c1.177,1.194,2.538,2.576,5.512,2.576c3.2,0,5.2-1.6,6-4.8c-1.2,1.6-2.6,2.2-4.2,1.8c-0.913-0.228-1.565-0.89-2.288-1.624 C10.337,13.382,8.976,12,6.001,12z" fill="currentColor"/>
  </symbol>

  <symbol id="mongodb" viewBox="0 0 24 24">
    <path d="M12,2C6.477,2,2,6.477,2,12c0,5.523,4.477,10,10,10s10-4.477,10-10C22,6.477,17.523,2,12,2z M13,19.25 c0,0.69-0.56,1.25-1.25,1.25s-1.25-0.56-1.25-1.25V5.25C10.5,4.56,11.06,4,11.75,4S13,4.56,13,5.25V19.25z" fill="currentColor"/>
  </symbol>
</svg>